<svg data-v-0dd9719b="" version="1.0" xmlns="http://www.w3.org/2000/svg" xmlns:xlink="http://www.w3.org/1999/xlink" width="100%" height="100%" viewBox="0 0 340.000000 250.000000" preserveAspectRatio="xMidYMid meet" color-interpolation-filters="sRGB" style="margin: auto;"> <rect data-v-0dd9719b="" x="0" y="0" width="100%" height="100%" fill="#fff" fill-opacity="1" class="background"></rect> <rect data-v-0dd9719b="" x="0" y="0" width="100%" height="100%" fill="url(#watermark)" fill-opacity="1" class="watermarklayer"></rect> <g data-v-0dd9719b="" fill="#333" class="icon-text-wrapper icon-svg-group iconsvg" transform="translate(48.576683044433594,95.00180053710938)"><g class="iconsvg-imagesvg" transform="translate(0,0)"><g><rect fill="#333" fill-opacity="0" stroke-width="2" x="0" y="0" width="60" height="59.996400215987045" class="image-rect"></rect> <svg x="0" y="0" width="60" height="59.996400215987045" filtersec="colorsb6245329925" class="image-svg-svg primary" style="overflow: visible;"><svg xmlns="http://www.w3.org/2000/svg" viewBox="-0.005915164947509766 -0.0032501220703125 100.00916290283203 100.00305938720703"><path d="M97.79 58.53L87.06 44.81a58.94 58.94 0 0 1-5-7.79L72.32 42l-9.14 27.73 4.92 9.75a60.75 60.75 0 0 1 8.64-3.3l16.78-4.67c6.48-1.81 8.48-7.65 4.27-12.98z" fill="#00d495"></path><path d="M30.27 63.18l-9.76 4.92a58.55 58.55 0 0 1 3.31 8.64l4.67 16.78c1.81 6.52 7.65 8.45 13 4.27l13.7-10.73a58.94 58.94 0 0 1 7.79-5l-4.93-9.75z" fill="#7fe000"></path><path d="M36.82 30.27l-4.93-9.76a57.37 57.37 0 0 1-8.63 3.31L6.48 28.49C0 30.3-2 36.14 2.2 41.47l10.74 13.72a58.94 58.94 0 0 1 5 7.79l9.75-4.93z" fill="#00a2ff"></path><path d="M69.73 36.82l9.75-4.92a60 60 0 0 1-3.3-8.64L71.51 6.48C69.7 0 63.85-2 58.53 2.21L44.81 12.94a58.94 58.94 0 0 1-7.79 5L42 27.68z" fill="#00c0d9"></path></svg></svg> <!----></g></g> <g transform="translate(67,1.7641162872314453)"><g data-gra="path-name" fill-rule="" class="tp-name iconsvg-namesvg" transform="translate(0,0)"><g transform="scale(1)"><g><path d="M25-34.19L25-34.19Q25.88-34.58 26.41-33.57L26.41-33.57Q26.67-30.37 26.89-28.61L26.89-28.61Q27.11-27.55 28.17-27.55L28.17-27.55 40.12-27.55Q41.44-27.55 41.66-27.51L41.66-27.51Q42.28-27.2 42.28-26.81L42.28-26.81Q42.45-26.32 42.01-25.8L42.01-25.8Q41.57-25.4 40.21-25.53L40.21-25.53 28.43-25.53Q27.38-25.53 27.51-24.48L27.51-24.48Q28.96-15.82 31.42-8.66L31.42-8.66Q31.77-7.6 32.43-8.75L32.43-8.75Q35.51-14.28 37.22-20.92L37.22-20.92Q37.62-21.75 38.41-21.53L38.41-21.53Q39.64-21.09 38.94-19.56L38.94-19.56Q36.56-11.73 33.44-6.5L33.44-6.5Q32.74-5.36 33.09-4.39L33.09-4.39Q34.85-0.31 36.61 2.42L36.61 2.42Q37.27 3.3 38.06 4.13L38.06 4.13Q39.11 5.19 39.68 4.13L39.68 4.13Q40.08 3.47 40.3 2.37L40.3 2.37Q40.83-0.4 41.22-3.78L41.22-3.78Q41.35-4.61 42.19-4.79L42.19-4.79Q42.67-4.75 42.93-4.44L42.93-4.44Q43.15-3.08 42.58 0.44L42.58 0.44Q42.19 3.34 41.09 5.71L41.09 5.71Q39.73 8.13 37.31 6.28L37.31 6.28Q35.73 4.97 34.41 2.77L34.41 2.77Q33.09 0.62 31.77-2.24L31.77-2.24Q31.29-3.3 30.45-2.2L30.45-2.2Q25.66 3.34 19.69 6.9L19.69 6.9Q18.9 7.29 18.28 6.72L18.28 6.72Q17.49 5.63 18.81 4.79L18.81 4.79Q24.61 1.36 29.58-4.39L29.58-4.39Q30.37-5.45 29.97-6.5L29.97-6.5Q27.03-14.68 25.58-24.43L25.58-24.43Q25.4-25.53 24.39-25.53L24.39-25.53 9.71-25.53Q8-25.09 8.26-23.12L8.26-23.12 8.26-19.69Q8.26-18.59 9.32-18.59L9.32-18.59 18.28-18.59Q19.2-18.46 20-17.97L20-17.97Q21.14-16.92 21.09-15.64L21.09-15.64 21.09-13.1Q21.05-8.53 20.57-4.79L20.57-4.79Q20.26-1.98 18.9-0.4L18.9-0.4Q18.54 0 18.06 0.13L18.06 0.13Q16.39 0.83 14.24 0.79L14.24 0.79Q11.95 0.48 9.84-0.22L9.84-0.22Q8.31-0.75 8.79-2.07L8.79-2.07Q9.4-2.94 10.46-2.42L10.46-2.42Q14.68-0.88 17.01-1.76L17.01-1.76Q17.71-2.07 18.02-2.9L18.02-2.9Q18.59-4.53 18.72-6.42L18.72-6.42 18.94-11.16 18.94-13.58Q19.03-14.63 18.9-15.12L18.9-15.12Q18.72-16.48 17.36-16.57L17.36-16.57 9.36-16.57Q8.26-16.57 8.26-15.51L8.26-15.51 8.26-10.85Q8.13-6.94 7.56-3.52L7.56-3.52Q6.86 1.36 4.44 5.71L4.44 5.71Q4.13 6.33 3.52 6.37L3.52 6.37Q2.46 6.24 2.55 5.19L2.55 5.19Q2.64 4.53 3.3 3.43L3.3 3.43Q5.63-1.19 6.02-7.12L6.02-7.12Q6.2-8.83 6.24-10.94L6.24-10.94 6.24-24.79Q6.46-27.29 8.79-27.55L8.79-27.55 23.99-27.55Q25.05-27.55 24.96-28.61L24.96-28.61Q24.65-31.51 24.61-32.65L24.61-32.65Q24.74-33.97 25-34.19ZM32.3-33.79L32.3-33.79Q32.7-34.58 33.71-34.15L33.71-34.15Q36.56-32.52 39.02-30.19L39.02-30.19Q40.3-29.18 39.51-28.3L39.51-28.3Q38.67-27.51 37.75-28.56L37.75-28.56Q34.89-31.2 32.48-32.48L32.48-32.48Q31.9-32.92 32.3-33.79ZM58.49-34.23L58.49-34.23Q59.37-34.58 59.9-33.66L59.9-33.66Q59.99-33.44 59.99-32.12L59.99-32.12 59.99-30.23Q59.99-29.14 61.04-29.14L61.04-29.14 66.75-29.14Q67.28-29.05 67.46-28.52L67.46-28.52Q67.68-27.77 67.06-27.25L67.06-27.25Q66.71-27.11 65.39-27.11L65.39-27.11 61.08-27.11Q59.99-27.11 59.99-26.06L59.99-26.06 59.99-21.49Q59.99-20.39 60.95-20.39L60.95-20.39Q61.88-20.39 62.84-21.45L62.84-21.45Q66.05-24.96 69.74-30.72L69.74-30.72Q70.75-31.46 71.37-30.15L71.37-30.15Q71.06-28.87 69.3-26.5L69.3-26.5Q67.37-23.99 65.35-21.45L65.35-21.45Q64.51-20.39 65.57-20.39L65.57-20.39 70.97-20.39Q71.89-20.13 71.72-19.12L71.72-19.12Q71.67-18.76 71.28-18.5L71.28-18.5Q70.93-18.33 69.61-18.33L69.61-18.33 63.59-18.33Q62.53-18.33 61.48-17.4L61.48-17.4Q59.81-15.86 58.14-14.46L58.14-14.46Q57.08-13.49 58.14-13.49L58.14-13.49 66.31-13.49Q68.42-13.36 69.3-11.21L69.3-11.21Q69.43-10.77 69.48-10.28L69.48-10.28 69.48 2.24Q69.21 4.75 66.4 5.41L66.4 5.41 54.76 5.41Q51.94 4.79 51.64 2.24L51.64 2.24 51.64-8.92Q51.64-10.02 50.54-9.45L50.54-9.45Q49.79-9.05 49-8.75L49-8.75Q48.03-8.35 47.64-8.57L47.64-8.57Q46.76-9.32 47.2-10.15L47.2-10.15Q47.33-10.33 47.72-10.5L47.72-10.5Q52.69-12.52 58.54-17.36L58.54-17.36Q59.63-18.33 58.54-18.33L58.54-18.33 49.7-18.33Q48.38-18.33 48.16-18.41L48.16-18.41Q47.46-18.81 47.55-19.42L47.55-19.42Q47.59-19.91 47.86-20.17L47.86-20.17Q48.38-20.52 49.7-20.39L49.7-20.39 56.91-20.39Q57.96-20.39 57.96-21.45L57.96-21.45 57.96-26.06Q57.96-27.11 56.91-27.11L56.91-27.11 51.64-27.11Q50.32-26.98 49.75-27.38L49.75-27.38Q49.31-27.91 49.57-28.61L49.57-28.61Q49.61-28.83 50.05-29.09L50.05-29.09Q50.23-29.14 51.55-29.14L51.55-29.14 56.91-29.14Q57.96-29.14 57.96-30.19L57.96-30.19 57.96-32.21Q57.96-33.53 58.05-33.75L58.05-33.75Q58.1-33.97 58.49-34.23ZM73.26 4.83L73.26-31.11Q73.48-32.61 75.15-33L75.15-33 84.16-33Q86.4-32.65 86.13-30.5L86.13-30.5Q86.09-29.66 85.69-28.74L85.69-28.74 83.41-21.71Q82.79-19.95 82.62-19.12L82.62-19.12Q82.53-18.15 83.23-17.31L83.23-17.31Q86.04-13.84 87.19-10.28L87.19-10.28Q88.77-5.54 87.01-2.46L87.01-2.46Q86.7-1.63 85.69-0.75L85.69-0.75Q83.14 1.14 80.24 0.7L80.24 0.7Q78.84 0.53 76.99-0.09L76.99-0.09Q75.98-0.62 76.29-1.54L76.29-1.54Q76.73-2.59 77.87-2.11L77.87-2.11Q80.99-1.14 82.84-1.45L82.84-1.45Q84.9-2.07 85.69-4.26L85.69-4.26Q86.26-5.8 85.78-8.26L85.78-8.26Q85.21-11.56 82.35-15.29L82.35-15.29Q80.68-17.49 80.55-18.81L80.55-18.81Q80.51-19.16 80.68-19.69L80.68-19.69 83.63-28.48Q84.11-29.44 84.11-30.23L84.11-30.23Q84.11-30.72 83.5-30.94L83.5-30.94Q83.28-30.98 82.22-30.98L82.22-30.98 77.39-30.98Q76.33-30.98 75.89-30.85L75.89-30.85Q75.37-30.54 75.32-30.01L75.32-30.01 75.32 4.83Q75.32 6.15 75.28 6.37L75.28 6.37Q74.88 7.21 73.92 6.99L73.92 6.99Q73.48 6.77 73.34 6.37L73.34 6.37Q73.26 6.06 73.26 4.83L73.26 4.83ZM65.57-11.47L55.42-11.47Q54.1-11.43 53.66-9.71L53.66-9.71 53.66-6.15Q53.66-5.05 54.71-5.05L54.71-5.05 66.4-5.05Q67.46-5.05 67.46-6.11L67.46-6.11 67.46-9.67Q67.06-11.38 65.57-11.47L65.57-11.47ZM67.46 1.36L67.46-1.93Q67.46-3.03 66.45-3.03L66.45-3.03 54.76-3.03Q53.66-3.03 53.66-1.98L53.66-1.98 53.66 1.32Q53.75 2.9 55.37 3.38L55.37 3.38 65.48 3.38Q67.37 3.12 67.46 1.36L67.46 1.36ZM102.74-33.93L102.74-33.93Q103.71-34.72 104.46-33.79L104.46-33.79Q104.59-33.49 104.59-32.12L104.59-32.12Q104.59-30.72 105.64-30.72L105.64-30.72 110.79-30.72Q112.1-30.72 112.37-30.63L112.37-30.63Q112.94-30.19 112.81-29.62L112.81-29.62Q112.76-29.05 112.19-28.74L112.19-28.74Q112.06-28.7 110.74-28.7L110.74-28.7 95.84-28.7Q94.53-28.7 94.31-28.78L94.31-28.78Q93.38-29.4 93.82-30.23L93.82-30.23Q94.09-30.67 94.53-30.72L94.53-30.72 101.47-30.72Q102.52-30.72 102.52-32.12L102.52-32.12Q102.52-33.49 102.74-33.93ZM113.42-32.17L113.42-32.17Q113.82-32.34 115.14-32.34L115.14-32.34 130.39-32.34Q131.7-32.34 131.84-32.3L131.84-32.3Q132.76-31.86 132.36-30.85L132.36-30.85Q132.23-30.63 132.01-30.45L132.01-30.45Q131.66-30.28 130.34-30.28L130.34-30.28 124.15-30.28Q123.09-30.28 122.87-29.22L122.87-29.22Q122.61-28.13 122.26-26.94L122.26-26.94Q121.9-25.84 122.96-25.84L122.96-25.84 128.28-25.84Q130.39-25.66 131.26-23.51L131.26-23.51Q131.44-23.07 131.48-22.54L131.48-22.54 131.48-4.53Q131.26-2.37 129.16-1.45L129.16-1.45Q128.76-1.32 128.32-1.27L128.32-1.27 117.25-1.27Q114.43-1.89 114.13-4.44L114.13-4.44 114.13-22.68Q114.39-24.79 116.54-25.66L116.54-25.66Q117.25-25.93 118.65-25.84L118.65-25.84Q119.71-25.84 120.1-26.89L120.1-26.89Q120.5-28.04 120.72-29.22L120.72-29.22Q120.89-30.28 119.84-30.28L119.84-30.28 115.18-30.28Q113.86-30.28 113.64-30.37L113.64-30.37Q112.76-30.94 113.12-31.77L113.12-31.77Q113.25-32.04 113.42-32.17ZM105.21-25.27L109.07-27.91Q109.47-28.08 109.95-27.73L109.95-27.73Q110.92-26.89 109.07-25.62L109.07-25.62Q108.19-24.92 107.27-24.3L107.27-24.3Q106.22-23.6 107.27-23.12L107.27-23.12Q108.76-22.46 110.35-21.49L110.35-21.49Q111.31-20.87 111.18-20.26L111.18-20.26Q111.18-19.78 110.61-19.51L110.61-19.51Q110.21-19.34 109.73-19.56L109.73-19.56Q107.58-20.87 105.16-21.97L105.16-21.97Q104.11-22.41 103.05-21.84L103.05-21.84Q99.76-20.04 96.11-19.03L96.11-19.03Q95.67-18.94 95.23-18.9L95.23-18.9Q94.75-18.85 94.44-19.42L94.44-19.42Q94.04-20.39 95.36-20.79L95.36-20.79Q97.91-21.45 101.07-22.85L101.07-22.85Q102.13-23.38 101.07-23.86L101.07-23.86 97.03-25.53Q96.28-26.06 96.68-26.89L96.68-26.89Q97.03-27.33 97.65-27.38L97.65-27.38Q98.17-27.33 99.18-26.81L99.18-26.81Q101.12-26.06 103.1-25.14L103.1-25.14Q104.15-24.52 105.21-25.27L105.21-25.27ZM127.53-23.77L117.95-23.77Q116.5-23.64 116.15-22.1L116.15-22.1 116.15-19.56Q116.15-18.46 117.2-18.46L117.2-18.46 128.36-18.46Q129.42-18.46 129.42-19.51L129.42-19.51 129.42-21.97Q129.02-23.69 127.53-23.77L127.53-23.77ZM94.44-7.38L94.44-15.47Q94.61-17.93 97.03-18.28L97.03-18.28 110.35-18.28Q111.67-18.28 111.88-18.19L111.88-18.19Q112.5-17.93 112.54-17.49L112.54-17.49Q112.81-16.74 111.93-16.3L111.93-16.3Q111.67-16.22 110.35-16.22L110.35-16.22 97.91-16.22Q96.5-15.82 96.46-14.77L96.46-14.77 96.46-6.55Q96.28 0.57 93.96 5.1L93.96 5.1Q93.38 6.42 92.33 5.76L92.33 5.76Q91.76 5.19 92.02 4.57L92.02 4.57Q93.96 0.4 94.26-4.22L94.26-4.22 94.44-7.38ZM129.42-12.26L129.42-15.34Q129.42-16.39 128.36-16.39L128.36-16.39 117.25-16.39Q116.15-16.39 116.15-15.34L116.15-15.34 116.15-12.3Q116.15-11.21 117.2-11.21L117.2-11.21 128.36-11.21Q129.42-11.21 129.42-12.26L129.42-12.26ZM106.79-15.34L106.79-15.34Q107.36-15.95 107.97-15.64L107.97-15.64Q109.29-14.99 108.11-13.75L108.11-13.75Q104.63-10.55 101.07-8.96L101.07-8.96Q99.49-8.09 98.53-8L98.53-8Q97.6-7.78 97.29-9.01L97.29-9.01Q97.38-9.67 98-9.98L98-9.98Q102.92-11.6 106.79-15.34ZM108.81-9.76L108.81-9.76Q109.42-10.46 110.17-10.24L110.17-10.24Q111.31-9.45 110.3-8.39L110.3-8.39Q107.58-5.67 105.03-4.04L105.03-4.04Q101.56-1.67 98.88-0.88L98.88-0.88Q98-0.53 97.51-1.45L97.51-1.45Q97.29-2.24 98.04-2.72L98.04-2.72Q101.38-3.82 104.85-6.24L104.85-6.24Q106.92-7.65 108.81-9.76ZM129.42-5.32L129.42-8.09Q129.42-9.18 128.41-9.18L128.41-9.18 117.25-9.18Q116.15-9.18 116.15-8.13L116.15-8.13 116.15-5.32Q116.28-3.74 117.82-3.34L117.82-3.34 127.53-3.34Q129.29-3.56 129.42-5.32L129.42-5.32ZM110.61-3.87L110.61-3.87Q111.18-4.44 112.02-3.74L112.02-3.74Q112.28-3.47 112.24-3.08L112.24-3.08Q112.15-2.55 110.74-1.14L110.74-1.14Q105.25 3.96 98.44 6.2L98.44 6.2Q97.51 6.46 96.68 6.37L96.68 6.37Q95.98 6.11 95.93 5.23L95.93 5.23Q95.84 4.97 96.24 4.57L96.24 4.57Q96.46 4.44 96.9 4.35L96.9 4.35Q101.87 3.43 107.45-0.88L107.45-0.88Q108.72-1.85 110.61-3.87ZM116.89 0.4L116.89 0.4Q117.64-0.57 118.56 0.22L118.56 0.22Q119.18 0.92 118.17 1.98L118.17 1.98Q115.09 5.27 111.4 6.81L111.4 6.81Q110.08 7.12 109.95 5.8L109.95 5.8Q110 5.36 110.3 5.14L110.3 5.14Q110.61 4.88 111.18 4.66L111.18 4.66Q113.82 3.52 116.89 0.4ZM125.82 0.35L125.82 0.35Q126.25-0.18 127.18 0.35L127.18 0.35Q129.46 1.89 131.79 4.09L131.79 4.09Q133.59 5.49 133.2 6.42L133.2 6.42Q132.14 7.82 130.91 6.06L130.91 6.06Q128.14 3.43 125.86 1.93L125.86 1.93Q125.07 1.32 125.82 0.35ZM143.83-34.28L143.83-34.28Q144.49-34.58 145.06-33.71L145.06-33.71Q145.2-33.44 145.2-32.12L145.2-32.12 145.2 4.79Q145.2 6.11 145.02 6.55L145.02 6.55Q144.67 7.03 144.18 7.03L144.18 7.03Q143.35 7.03 143.13 6.2L143.13 6.2 143.13-33.53Q143.17-33.97 143.83-34.28ZM160.18-32.56L160.18-32.56Q160.49-32.96 160.93-33L160.93-33 168.71-33Q170.16-32.96 170.82-31.82L170.82-31.82Q173.1-27.73 175.3-24.79L175.3-24.79Q176.13-23.64 177.76-22.1L177.76-22.1Q178.64-21.49 178.29-20.61L178.29-20.61Q177.71-19.69 176.84-20.08L176.84-20.08Q174.9-21.4 173.8-23.29L173.8-23.29Q171.69-26.41 170.24-29.44L170.24-29.44Q169.5-30.81 168.35-30.98L168.35-30.98 162.25-30.98Q160.93-30.98 160.71-31.07L160.71-31.07Q159.74-31.55 160.18-32.56ZM155.92-28.65L156.75-30.41Q157.37-31.42 158.16-30.89L158.16-30.89Q158.99-30.41 158.47-29.22L158.47-29.22Q156.05-23.99 152.71-20.43L152.71-20.43Q151.7-19.34 150.95-19.73L150.95-19.73Q149.9-20.35 150.78-21.4L150.78-21.4Q154.07-24.7 155.92-28.65L155.92-28.65ZM148.54-15.03L147.13-24.7Q146.87-26.28 148.49-26.06L148.49-26.06Q148.89-26.06 149.15-25.4L149.15-25.4Q149.63-21.88 150.21-18.37L150.21-18.37 150.38-16.61Q150.6-15.21 150.51-14.72L150.51-14.72Q150.21-13.93 149.24-14.15L149.24-14.15Q148.54-14.41 148.54-15.03L148.54-15.03ZM138.82-24.92L138.82-24.92Q139.04-26.32 140.27-25.88L140.27-25.88Q141.02-25.36 140.84-24.65L140.84-24.65Q140.23-15.78 139.17-10.59L139.17-10.59Q138.87-9.1 137.68-9.54L137.68-9.54Q136.89-9.93 137.15-10.94L137.15-10.94Q138.56-17.84 138.82-24.92ZM154.2-12.04L154.2-20.79Q154.47-22.85 156.75-23.33L156.75-23.33 172-23.33Q174.02-23.07 174.51-20.92L174.51-20.92 174.51-12.22Q174.16-9.93 171.96-9.54L171.96-9.54 170.38-9.54Q169.28-9.54 169.28-8.48L169.28-8.48 169.28 2.46Q169.45 4.04 171.21 4.39L171.21 4.39Q173.36 4.61 174.86 4L174.86 4Q175.96 3.52 176.13 2.24L176.13 2.24 176.13-0.18 176.26-1.93Q176.26-2.42 176.79-2.72L176.79-2.72Q177.5-3.03 178.02-2.33L178.02-2.33Q178.11-2.11 178.11-0.79L178.11-0.79Q178.11 2.02 177.76 4.09L177.76 4.09Q177.58 4.92 176.4 5.71L176.4 5.71Q175.3 6.33 173.98 6.46L173.98 6.46 170.99 6.46Q168.79 6.15 167.65 4.44L167.65 4.44Q167.26 3.74 167.21 2.94L167.21 2.94 167.21-8.48Q167.21-9.54 166.16-9.54L166.16-9.54 161.94-9.54Q160.84-9.54 160.84-8.48L160.84-8.48Q161.02-4.13 159.21-0.31L159.21-0.31Q156.53 4.79 151.17 7.08L151.17 7.08Q150.73 7.29 150.29 6.94L150.29 6.94Q149.5 6.24 150.16 5.49L150.16 5.49Q150.95 5.01 151.79 4.57L151.79 4.57Q158.07 0.75 158.69-5.41L158.69-5.41Q158.86-6.42 158.77-8.48L158.77-8.48Q158.77-9.54 157.72-9.54L157.72-9.54Q154.95-9.32 154.2-12.04L154.2-12.04ZM171.12-21.31L157.63-21.31Q156.45-21.05 156.27-19.86L156.27-19.86 156.27-13.01Q156.31-12.04 157.72-11.56L157.72-11.56 170.95-11.56Q172.22-11.73 172.49-13.14L172.49-13.14 172.49-19.73Q172.4-21.05 171.12-21.31L171.12-21.31Z" transform="translate(-2.5429563522338867, 34.3569221496582)"></path></g> <!----> <!----> <!----> <!----> <!----> <!----> <!----></g></g> <g data-gra="path-slogan" fill-rule="" class="tp-slogan iconsvg-slogansvg" fill="#333" transform="translate(4.999992370605469,47.51567077636719)"><rect x="0" height="1" y="3.9750003814697266" width="24.048316955566406"></rect> <rect height="1" y="3.9750003814697266" width="24.048316955566406" x="141.7983169555664"></rect> <g transform="translate(27.048316955566406,0)"><g transform="scale(1)"><path d="M8.06-6.05L8.06-6.05L6.94-6.05Q6.52-7.78 4.55-7.83L4.55-7.83Q1.83-7.69 1.73-4.36L1.73-4.36Q1.73-0.80 4.59-0.80L4.59-0.80Q6.56-0.84 7.03-3.19L7.03-3.19L8.16-3.19Q7.64 0.05 4.36 0.14L4.36 0.14Q0.61 0 0.52-4.31L0.52-4.31Q0.70-8.63 4.55-8.81L4.55-8.81Q7.59-8.72 8.06-6.05ZM10.69-5.06L15.19-5.06L15.19-8.58L16.36-8.58L16.36 0L15.19 0L15.19-3.98L10.69-3.98L10.69 0L9.52 0L9.52-8.58L10.69-8.58L10.69-5.06ZM19.45-1.03L24.61-1.03L24.61 0L18.28 0L18.28-8.58L24.52-8.58L24.52-7.59L19.45-7.59L19.45-4.92L24.14-4.92L24.14-3.89L19.45-3.89L19.45-1.03ZM27.52-8.58L31.83-1.64L31.83-8.58L32.95-8.58L32.95 0L31.64 0L27.28-6.94L27.23-6.94L27.23 0L26.11 0L26.11-8.58L27.52-8.58ZM41.16-3.61L38.53-3.61L38.53-4.59L42.28-4.59L42.28 0L41.53 0L41.25-1.08Q40.27 0.09 38.44 0.14L38.44 0.14Q36.70 0.14 35.77-0.75L35.77-0.75Q34.36-2.06 34.41-4.36L34.41-4.36Q34.73-8.63 38.48-8.81L38.48-8.81Q41.67-8.63 42.14-6L42.14-6L41.02-6Q40.55-7.78 38.44-7.83L38.44-7.83Q35.77-7.64 35.63-4.31L35.63-4.31Q35.63-0.75 38.48-0.75L38.48-0.75Q39.52-0.75 40.27-1.31L40.27-1.31Q41.20-2.06 41.16-3.61L41.16-3.61ZM47.58 0L44.11 0L44.11-8.58L47.63-8.58Q51.09-8.39 51.23-4.41L51.23-4.41Q51.05-0.09 47.58 0L47.58 0ZM47.44-7.64L45.28-7.64L45.28-0.98L47.53-0.98Q49.97-1.13 50.06-4.31L50.06-4.31Q50.02-7.55 47.44-7.64L47.44-7.64ZM58.36-3.19L58.36-8.58L59.53-8.58L59.53-3.05Q59.39 0.05 56.02 0.14L56.02 0.14Q52.88 0.05 52.73-2.86L52.73-2.86L52.73-8.58L53.91-8.58L53.91-3.19Q53.95-0.84 56.06-0.80L56.06-0.80Q58.36-0.84 58.36-3.19L58.36-3.19ZM71.58-8.58L68.34-3.47L68.34 0L67.17 0L67.17-3.47L63.94-8.58L65.30-8.58L67.73-4.45L70.22-8.58L71.58-8.58ZM78.28 0L77.44-2.48L73.97-2.48L73.08 0L71.91 0L75.14-8.58L76.45-8.58L79.55 0L78.28 0ZM75.70-7.31L74.34-3.52L77.02-3.52L75.75-7.31L75.70-7.31ZM81.98-8.58L86.30-1.64L86.30-8.58L87.42-8.58L87.42 0L86.11 0L81.75-6.94L81.70-6.94L81.70 0L80.58 0L80.58-8.58L81.98-8.58ZM96.14-8.58L92.91-3.47L92.91 0L91.73 0L91.73-3.47L88.50-8.58L89.86-8.58L92.30-4.45L94.78-8.58L96.14-8.58ZM102.84-3.19L102.84-8.58L104.02-8.58L104.02-3.05Q103.88 0.05 100.50 0.14L100.50 0.14Q97.36 0.05 97.22-2.86L97.22-2.86L97.22-8.58L98.39-8.58L98.39-3.19Q98.44-0.84 100.55-0.80L100.55-0.80Q102.84-0.84 102.84-3.19L102.84-3.19ZM107.11-1.03L112.27-1.03L112.27 0L105.94 0L105.94-8.58L112.17-8.58L112.17-7.59L107.11-7.59L107.11-4.92L111.80-4.92L111.80-3.89L107.11-3.89L107.11-1.03Z" transform="translate(-0.515625, 8.8125)"></path></g></g></g></g></g><defs v-gra="od"></defs></svg>